<svg width="48" height="48" viewBox="0 0 48 48" fill="none" xmlns="http://www.w3.org/2000/svg">
<path d="M8.444 27L24 42L39.556 27C42.256 24.967 44 21.744 44 18.111C44 11.978 39.022 7 32.889 7C29.256 7 26.022 8.756 24 11.456C21.978 8.756 18.744 7 15.111 7C8.978 7 4 11.978 4 18.111C4 21.744 5.744 24.967 8.444 27ZM15.111 9C17.961 9 20.685 10.366 22.399 12.654L24 14.792L25.601 12.655C27.315 10.366 30.039 9 32.889 9C37.913 9 42 13.087 42 18.111C42 20.999 40.671 23.657 38.352 25.402L38.255 25.475L38.167 25.56L24 39.222L9.833 25.56L9.745 25.475L9.648 25.402C7.33 23.657 6 20.999 6 18.111C6 13.087 10.087 9 15.111 9Z" fill="black"/>
</svg>
